<svg xmlns="http://www.w3.org/2000/svg" viewBox="707.38 53.201 448.143 144.799">
  <defs>
    <style>
      .cls-1 {
        opacity: 0.72;
      }

      .cls-2 {
        fill: #e37500;
      }

      .cls-3 {
        fill: green;
      }

      .cls-4 {
        fill: #129b12;
      }

      .cls-5 {
        fill: #097c09;
      }

      .cls-6 {
        fill: #009000;
      }

      .cls-7 {
        fill: #bf6101;
      }

      .cls-8 {
        fill: #9a4d01;
      }

      .cls-9 {
        fill: #28a528;
      }

      .cls-10 {
        fill: #0a0;
      }

      .cls-11 {
        fill: #974c00;
      }

      .cls-12 {
        stroke: #000;
      }

      .cls-12, .cls-13 {
        stroke-width: 2px;
        font-size: 67px;
        font-family: BerlinSansFBDemi-Bold, Berlin Sans FB;
        font-weight: 700;
      }

      .cls-13 {
        fill: #fff;
        stroke: #373737;
      }
    </style>
  </defs>
  <g id="HEADER" transform="translate(1839 -58)">
    <g id="_001-tree-1" data-name="001-tree-1" class="cls-1" transform="translate(-971.989 125.281)">
      <rect id="Rectangle_7" data-name="Rectangle 7" class="cls-2" width="13.573" height="25.335" transform="translate(45.631 97.539)"/>
      <path id="Path_5" data-name="Path 5" class="cls-3" d="M146.171,104.668,116.145,71.962h26.038L114.257,43.509H127.71L91.389,0,55.056,43.509H68.519L40.583,71.962H66.631L36.6,104.668Z" transform="translate(-36.595)"/>
    </g>
    <g id="_001-tree-1-2" data-name="001-tree-1" class="cls-1" transform="translate(-883.068 134.416) rotate(-7)">
      <rect id="Rectangle_7-2" data-name="Rectangle 7" class="cls-2" width="13.573" height="25.335" transform="translate(45.631 97.539)"/>
      <path id="Path_5-2" data-name="Path 5" class="cls-3" d="M146.171,104.668,116.145,71.962h26.038L114.257,43.509H127.71L91.389,0,55.056,43.509H68.519L40.583,71.962H66.631L36.6,104.668Z" transform="translate(-36.595)"/>
    </g>
    <g id="_002-tree" data-name="002-tree" class="cls-1" transform="translate(-1026.975 121.532)">
      <path id="Path_6" data-name="Path 6" class="cls-4" d="M139.426,59.116a21.242,21.242,0,0,0-12.975-19.569,18.942,18.942,0,0,0-25.135-25.711,18.939,18.939,0,0,0-36.477,0A18.939,18.939,0,0,0,39.7,39.547,21.232,21.232,0,0,0,47,80.318c1.572,5.695,7.644,9.94,14.9,9.94a16.874,16.874,0,0,0,10.592-3.584,17.444,17.444,0,0,0,21.183,0,16.875,16.875,0,0,0,10.592,3.584c7.256,0,13.327-4.245,14.9-9.94A21.228,21.228,0,0,0,139.426,59.116Z" transform="translate(-26.729)"/>
      <g id="Group_3" data-name="Group 3" transform="translate(52.557)">
        <path id="Path_7" data-name="Path 7" class="cls-5" d="M243.229.038c-.233.014-.465.031-.7.053l-.211.022q-.372.04-.74.094l-.138.02c-.291.045-.581.1-.869.155h0A20.889,20.889,0,0,1,253.15,9.222a10.488,10.488,0,0,0,9.379,4.62l.074-.005A18.943,18.943,0,0,0,244.365,0c-.3,0-.607.009-.908.023C243.381.027,243.305.033,243.229.038Z" transform="translate(-240.574)"/>
        <path id="Path_8" data-name="Path 8" class="cls-5" d="M352.746,76.125a18.946,18.946,0,0,0-20.618-27.247,18.94,18.94,0,0,1,13.036,27.247,21.232,21.232,0,0,1-7.291,40.77c-1.289,4.667-5.6,8.359-11.109,9.54a18.06,18.06,0,0,0,3.792.4c7.256,0,13.327-4.245,14.9-9.94a21.232,21.232,0,0,0,7.291-40.77Z" transform="translate(-305.581 -36.579)"/>
      </g>
      <path id="Path_9" data-name="Path 9" class="cls-6" d="M165.8,338.247c-1.708,2.9-8.787,6.137-11.412,6.321.289.062.582.116.877.164l.071.012q.449.071.906.121l.024,0c.275.029.552.05.831.066l.2.011c.291.014.583.023.878.023h0a17.046,17.046,0,0,0,9.841-3.021l.466-.339-2.376-3.9Z" transform="translate(-123.012 -254.71)"/>
      <path id="Path_10" data-name="Path 10" class="cls-7" d="M204.373,277.871l8.114-12.8a2.427,2.427,0,0,0-.457-3.13h0a2.427,2.427,0,0,0-3.319.126l-5.976,6.05a1.174,1.174,0,0,1-2-.982l1.757-13.02a2.426,2.426,0,0,0-2.241-2.746l-1.646-.111a2.427,2.427,0,0,0-2.553,2l-3.137,17.822a1.175,1.175,0,0,1-2.068.538l-9.824-12.082a2.426,2.426,0,0,0-2.823-.706l-1.72.723a2.427,2.427,0,0,0-1.141,3.485l10.1,16.827a12.622,12.622,0,0,1,1.7,8.114c-1.308,10.091-2.934,19.607-9.584,27.359h34.7c-7.12-8.3-8.876-18.619-9.818-29.5A12.812,12.812,0,0,1,204.373,277.871Z" transform="translate(-138.554 -189.498)"/>
      <path id="Path_11" data-name="Path 11" class="cls-8" d="M274.317,265.463a2.426,2.426,0,0,0-.457-3.13h0a2.427,2.427,0,0,0-3.319.126l-2.669,2.7h0l-3.307,3.348a1.174,1.174,0,0,1-2-.982l1.757-13.02a2.424,2.424,0,0,0-2.137-2.733l-4.941,30.713q-.125.6-.193,1.2h0a12.87,12.87,0,0,0-.033,2.542c.943,10.883,2.7,21.2,9.819,29.5h7.247c-7.12-8.3-8.876-18.619-9.818-29.5a12.808,12.808,0,0,1,1.936-7.961Z" transform="translate(-200.384 -189.895)"/>
      <path id="Path_12" data-name="Path 12" class="cls-9" d="M112.264,60.5A13.147,13.147,0,0,0,100.3,68.19,13.146,13.146,0,0,0,81.34,85.508a13.15,13.15,0,0,0,2.014,26.144c7.262,0,42.058-30.741,42.058-38A13.149,13.149,0,0,0,112.264,60.5Z" transform="translate(-59.521 -45.631)"/>
    </g>
    <g id="_002-tree-2" data-name="002-tree" class="cls-1" transform="matrix(0.995, 0.105, -0.105, 0.995, -905.838, 128.182)">
      <path id="Path_6-2" data-name="Path 6" class="cls-4" d="M101.78,53.39A19.184,19.184,0,0,0,90.062,35.716a17.107,17.107,0,0,0-22.7-23.22,17.1,17.1,0,0,0-32.944,0,17.1,17.1,0,0,0-22.7,23.22A19.175,19.175,0,0,0,18.3,72.538c1.42,5.143,6.9,8.977,13.456,8.977a15.239,15.239,0,0,0,9.566-3.236,15.754,15.754,0,0,0,19.131,0,15.24,15.24,0,0,0,9.566,3.236c6.553,0,12.036-3.834,13.456-8.977A19.172,19.172,0,0,0,101.78,53.39Z" transform="translate(0 0)"/>
      <g id="Group_3-2" data-name="Group 3" transform="translate(47.466 0)">
        <path id="Path_7-2" data-name="Path 7" class="cls-5" d="M2.4.034c-.211.013-.42.028-.629.048L1.578.1Q1.242.139.91.187L.786.206C.522.247.261.293,0,.345H0A18.866,18.866,0,0,1,11.358,8.328a9.472,9.472,0,0,0,8.47,4.172l.067,0A17.108,17.108,0,0,0,3.424,0c-.275,0-.548.008-.82.021C2.535.024,2.467.03,2.4.034Z"/>
        <path id="Path_8-2" data-name="Path 8" class="cls-5" d="M23.465,24.951A17.1,17.1,0,0,0,8.267,0,17.147,17.147,0,0,0,4.844.344a17.111,17.111,0,0,1,13.68,16.762,17.023,17.023,0,0,1-1.907,7.846,19.175,19.175,0,0,1-6.585,36.821C8.869,65.988,4.975,69.322,0,70.388a16.31,16.31,0,0,0,3.424.361c6.553,0,12.036-3.834,13.456-8.977a19.175,19.175,0,0,0,6.585-36.821Z" transform="translate(19.131 10.765)"/>
      </g>
      <path id="Path_9-2" data-name="Path 9" class="cls-6" d="M10.307.485C8.764,3.1,2.371,6.027,0,6.194c.261.056.525.1.792.148l.064.011q.405.064.819.109l.021,0c.248.026.5.045.75.06l.184.01c.263.013.527.021.793.021h0a15.4,15.4,0,0,0,8.888-2.728l.421-.306L10.587,0Z" transform="translate(28.336 74.96)"/>
      <path id="Path_10-2" data-name="Path 10" class="cls-7" d="M26.534,24.044,33.862,12.48a2.191,2.191,0,0,0-.413-2.827h0a2.192,2.192,0,0,0-3,.113l-5.4,5.464a1.061,1.061,0,0,1-1.806-.887L24.836,2.585A2.191,2.191,0,0,0,22.812.106l-1.487-.1a2.192,2.192,0,0,0-2.306,1.807l-2.833,16.1a1.061,1.061,0,0,1-1.868.485L5.446,7.481A2.191,2.191,0,0,0,2.9,6.843L1.343,7.5a2.192,2.192,0,0,0-1.03,3.148l9.117,15.2a11.4,11.4,0,0,1,1.535,7.328C9.784,42.282,8.316,50.877,2.309,57.878H33.651c-6.43-7.495-8.016-16.815-8.867-26.644A11.571,11.571,0,0,1,26.534,24.044Z" transform="translate(32.909 55.768)"/>
      <path id="Path_11-2" data-name="Path 11" class="cls-8" d="M15.666,12.363a2.191,2.191,0,0,0-.413-2.827h0a2.192,2.192,0,0,0-3,.113l-2.41,2.44h0L6.858,15.114a1.061,1.061,0,0,1-1.806-.887L6.64,2.468A2.189,2.189,0,0,0,4.71,0L.247,27.738q-.113.537-.174,1.084h0a11.623,11.623,0,0,0-.03,2.3C.894,40.946,2.48,50.266,8.91,57.761h6.545C9.026,50.266,7.44,40.946,6.589,31.117a11.567,11.567,0,0,1,1.749-7.19Z" transform="translate(51.106 55.885)"/>
      <path id="Path_12-2" data-name="Path 12" class="cls-9" d="M37.984,0a11.874,11.874,0,0,0-10.8,6.945,11.872,11.872,0,0,0-17.125,15.64A11.876,11.876,0,0,0,11.875,46.2c6.558,0,37.984-27.763,37.984-34.322A11.875,11.875,0,0,0,37.984,0Z" transform="translate(9.65 13.429)"/>
    </g>
    <g id="_003-trees" data-name="003-trees" class="cls-1" transform="matrix(0.998, 0.07, -0.07, 0.998, -827.333, 111.201)">
      <rect id="Rectangle_3" data-name="Rectangle 3" class="cls-2" width="21.462" height="24.621" transform="translate(95.875 106.336)"/>
      <path id="Path_1" data-name="Path 1" class="cls-10" d="M78.79,87.269H0L16.493,64.043H4.482L18.735,43.976H8.17L39.4,0,70.622,43.976H60.058l14.25,20.067H62.3Z" transform="translate(67.213 25.688)"/>
      <rect id="Rectangle_4" data-name="Rectangle 4" class="cls-11" width="10.73" height="24.621" transform="translate(106.61 106.336)"/>
      <path id="Path_2" data-name="Path 2" class="cls-3" d="M39.394,87.269H0V0L31.226,43.976H20.661l14.25,20.067H22.9Z" transform="translate(106.609 25.688)"/>
      <rect id="Rectangle_5" data-name="Rectangle 5" class="cls-2" width="27.78" height="31.868" transform="translate(37.101 104.388)"/>
      <path id="Path_3" data-name="Path 3" class="cls-10" d="M101.983,112.958H0L21.347,82.895H5.8L24.25,56.92H10.575L50.993,0,91.411,56.92H77.736L96.181,82.895H80.636Z" transform="translate(0)"/>
      <rect id="Rectangle_6" data-name="Rectangle 6" class="cls-11" width="13.889" height="31.868" transform="translate(50.993 104.388)"/>
      <path id="Path_4" data-name="Path 4" class="cls-3" d="M50.99,112.958H0V0L40.418,56.92H26.743L45.189,82.895H29.643Z" transform="translate(50.993 0)"/>
    </g>
    <g id="_003-trees-2" data-name="003-trees" class="cls-1" transform="matrix(0.998, -0.07, 0.07, 0.998, -1131.62, 121.386)">
      <rect id="Rectangle_3-2" data-name="Rectangle 3" class="cls-2" width="21.462" height="24.621" transform="translate(95.875 106.336)"/>
      <path id="Path_1-2" data-name="Path 1" class="cls-10" d="M78.79,87.269H0L16.493,64.043H4.482L18.735,43.976H8.17L39.4,0,70.622,43.976H60.058l14.25,20.067H62.3Z" transform="translate(67.213 25.688)"/>
      <rect id="Rectangle_4-2" data-name="Rectangle 4" class="cls-11" width="10.73" height="24.621" transform="translate(106.61 106.336)"/>
      <path id="Path_2-2" data-name="Path 2" class="cls-3" d="M39.394,87.269H0V0L31.226,43.976H20.661l14.25,20.067H22.9Z" transform="translate(106.609 25.688)"/>
      <rect id="Rectangle_5-2" data-name="Rectangle 5" class="cls-2" width="27.78" height="31.868" transform="translate(37.101 104.388)"/>
      <path id="Path_3-2" data-name="Path 3" class="cls-10" d="M101.983,112.958H0L21.347,82.895H5.8L24.25,56.92H10.575L50.993,0,91.411,56.92H77.736L96.181,82.895H80.636Z" transform="translate(0)"/>
      <rect id="Rectangle_6-2" data-name="Rectangle 6" class="cls-11" width="13.889" height="31.868" transform="translate(50.993 104.388)"/>
      <path id="Path_4-2" data-name="Path 4" class="cls-3" d="M50.99,112.958H0V0L40.418,56.92H26.743L45.189,82.895H29.643Z" transform="translate(50.993 0)"/>
    </g>
    <text id="DREWNO_KOMINKOWE" data-name="DREWNO
KOMINKOWE" class="cls-12" transform="translate(-910 188)"><tspan x="-145.696" y="0">DREWNO</tspan><tspan x="-207.069" y="52">KOMINKOWE</tspan></text>
    <text id="DREWNO_KOMINKOWE-2" data-name="DREWNO
KOMINKOWE" class="cls-13" transform="translate(-908 186)"><tspan x="-145.696" y="0">DREWNO</tspan><tspan x="-207.069" y="52">KOMINKOWE</tspan></text>
  </g>
</svg>
